<svg width="1212" height="76" viewBox="0 0 1212 76" fill="none" xmlns="http://www.w3.org/2000/svg">
<g clip-path="url(#clip0_1_3)">
<g clip-path="url(#clip1_1_3)">
<path d="M7.456 37.18H18.208V41.34H7.456V37.18ZM7.84 49.5H2.656V27.1H19.584V31.26H7.84V49.5ZM22.7415 49.5V32.284H27.7335V49.5H22.7415ZM25.2375 29.884C24.3202 29.884 23.5735 29.6173 22.9975 29.084C22.4215 28.5507 22.1335 27.8893 22.1335 27.1C22.1335 26.3107 22.4215 25.6493 22.9975 25.116C23.5735 24.5827 24.3202 24.316 25.2375 24.316C26.1548 24.316 26.9015 24.572 27.4775 25.084C28.0535 25.5747 28.3415 26.2147 28.3415 27.004C28.3415 27.836 28.0535 28.5293 27.4775 29.084C26.9228 29.6173 26.1762 29.884 25.2375 29.884ZM42.8305 32.028C44.1958 32.028 45.4118 32.3053 46.4785 32.86C47.5665 33.3933 48.4198 34.2253 49.0385 35.356C49.6572 36.4653 49.9665 37.8947 49.9665 39.644V49.5H44.9745V40.412C44.9745 39.0253 44.6652 38.0013 44.0465 37.34C43.4492 36.6787 42.5958 36.348 41.4865 36.348C40.6972 36.348 39.9825 36.5187 39.3425 36.86C38.7238 37.18 38.2332 37.6813 37.8705 38.364C37.5292 39.0467 37.3585 39.9213 37.3585 40.988V49.5H32.3665V32.284H37.1345V37.052L36.2385 35.612C36.8572 34.46 37.7425 33.5747 38.8945 32.956C40.0465 32.3373 41.3585 32.028 42.8305 32.028ZM65.0515 49.5V46.14L64.7315 45.404V39.388C64.7315 38.3213 64.4008 37.4893 63.7395 36.892C63.0995 36.2947 62.1075 35.996 60.7635 35.996C59.8462 35.996 58.9395 36.1453 58.0435 36.444C57.1688 36.7213 56.4222 37.1053 55.8035 37.596L54.0115 34.108C54.9502 33.4467 56.0808 32.9347 57.4035 32.572C58.7262 32.2093 60.0702 32.028 61.4355 32.028C64.0595 32.028 66.0968 32.6467 67.5475 33.884C68.9982 35.1213 69.7235 37.052 69.7235 39.676V49.5H65.0515ZM59.8035 49.756C58.4595 49.756 57.3075 49.532 56.3475 49.084C55.3875 48.6147 54.6515 47.9853 54.1395 47.196C53.6275 46.4067 53.3715 45.5213 53.3715 44.54C53.3715 43.516 53.6168 42.62 54.1075 41.852C54.6195 41.084 55.4195 40.4867 56.5075 40.06C57.5955 39.612 59.0142 39.388 60.7635 39.388H65.3395V42.3H61.3075C60.1342 42.3 59.3235 42.492 58.8755 42.876C58.4488 43.26 58.2355 43.74 58.2355 44.316C58.2355 44.956 58.4808 45.468 58.9715 45.852C59.4835 46.2147 60.1768 46.396 61.0515 46.396C61.8835 46.396 62.6302 46.204 63.2915 45.82C63.9528 45.4147 64.4328 44.828 64.7315 44.06L65.4995 46.364C65.1368 47.4733 64.4755 48.316 63.5155 48.892C62.5555 49.468 61.3182 49.756 59.8035 49.756ZM84.7055 32.028C86.0708 32.028 87.2868 32.3053 88.3535 32.86C89.4415 33.3933 90.2948 34.2253 90.9135 35.356C91.5322 36.4653 91.8415 37.8947 91.8415 39.644V49.5H86.8495V40.412C86.8495 39.0253 86.5402 38.0013 85.9215 37.34C85.3242 36.6787 84.4708 36.348 83.3615 36.348C82.5722 36.348 81.8575 36.5187 81.2175 36.86C80.5988 37.18 80.1082 37.6813 79.7455 38.364C79.4042 39.0467 79.2335 39.9213 79.2335 40.988V49.5H74.2415V32.284H79.0095V37.052L78.1135 35.612C78.7322 34.46 79.6175 33.5747 80.7695 32.956C81.9215 32.3373 83.2335 32.028 84.7055 32.028ZM104.812 49.756C102.956 49.756 101.302 49.3827 99.8515 48.636C98.4008 47.868 97.2595 46.812 96.4275 45.468C95.6168 44.124 95.2115 42.5987 95.2115 40.892C95.2115 39.164 95.6168 37.6387 96.4275 36.316C97.2595 34.972 98.4008 33.9267 99.8515 33.18C101.302 32.412 102.956 32.028 104.812 32.028C106.625 32.028 108.204 32.412 109.548 33.18C110.892 33.9267 111.884 35.004 112.524 36.412L108.652 38.492C108.204 37.6813 107.638 37.084 106.956 36.7C106.294 36.316 105.569 36.124 104.78 36.124C103.926 36.124 103.158 36.316 102.476 36.7C101.793 37.084 101.249 37.628 100.844 38.332C100.46 39.036 100.268 39.8893 100.268 40.892C100.268 41.8947 100.46 42.748 100.844 43.452C101.249 44.156 101.793 44.7 102.476 45.084C103.158 45.468 103.926 45.66 104.78 45.66C105.569 45.66 106.294 45.4787 106.956 45.116C107.638 44.732 108.204 44.124 108.652 43.292L112.524 45.404C111.884 46.7907 110.892 47.868 109.548 48.636C108.204 49.3827 106.625 49.756 104.812 49.756ZM102.988 56.924C102.433 56.924 101.889 56.86 101.356 56.732C100.844 56.604 100.396 56.444 100.012 56.252L100.78 54.108C101.1 54.2573 101.43 54.3747 101.772 54.46C102.113 54.5453 102.476 54.588 102.86 54.588C103.457 54.588 103.884 54.492 104.14 54.3C104.396 54.108 104.524 53.8627 104.524 53.564C104.524 53.2867 104.396 53.0627 104.14 52.892C103.905 52.7213 103.51 52.636 102.956 52.636H101.868L102.7 49.244H105.356L104.908 51.1C105.868 51.2067 106.572 51.5053 107.02 51.996C107.468 52.508 107.692 53.0947 107.692 53.756C107.692 54.716 107.265 55.484 106.412 56.06C105.558 56.636 104.417 56.924 102.988 56.924ZM125.958 49.5V46.14L125.638 45.404V39.388C125.638 38.3213 125.307 37.4893 124.646 36.892C124.006 36.2947 123.014 35.996 121.67 35.996C120.752 35.996 119.846 36.1453 118.95 36.444C118.075 36.7213 117.328 37.1053 116.71 37.596L114.918 34.108C115.856 33.4467 116.987 32.9347 118.31 32.572C119.632 32.2093 120.976 32.028 122.342 32.028C124.966 32.028 127.003 32.6467 128.454 33.884C129.904 35.1213 130.63 37.052 130.63 39.676V49.5H125.958ZM120.71 49.756C119.366 49.756 118.214 49.532 117.254 49.084C116.294 48.6147 115.558 47.9853 115.046 47.196C114.534 46.4067 114.278 45.5213 114.278 44.54C114.278 43.516 114.523 42.62 115.014 41.852C115.526 41.084 116.326 40.4867 117.414 40.06C118.502 39.612 119.92 39.388 121.67 39.388H126.246V42.3H122.214C121.04 42.3 120.23 42.492 119.782 42.876C119.355 43.26 119.142 43.74 119.142 44.316C119.142 44.956 119.387 45.468 119.878 45.852C120.39 46.2147 121.083 46.396 121.958 46.396C122.79 46.396 123.536 46.204 124.198 45.82C124.859 45.4147 125.339 44.828 125.638 44.06L126.406 46.364C126.043 47.4733 125.382 48.316 124.422 48.892C123.462 49.468 122.224 49.756 120.71 49.756ZM140.94 49.756C139.468 49.756 138.049 49.5853 136.684 49.244C135.34 48.8813 134.273 48.4333 133.484 47.9L135.148 44.316C135.937 44.8067 136.865 45.212 137.932 45.532C139.02 45.8307 140.086 45.98 141.132 45.98C142.284 45.98 143.094 45.8413 143.564 45.564C144.054 45.2867 144.3 44.9027 144.3 44.412C144.3 44.0067 144.108 43.708 143.724 43.516C143.361 43.3027 142.87 43.1427 142.252 43.036C141.633 42.9293 140.95 42.8227 140.204 42.716C139.478 42.6093 138.742 42.4707 137.996 42.3C137.249 42.108 136.566 41.8307 135.948 41.468C135.329 41.1053 134.828 40.6147 134.444 39.996C134.081 39.3773 133.9 38.5773 133.9 37.596C133.9 36.508 134.209 35.548 134.828 34.716C135.468 33.884 136.385 33.2333 137.58 32.764C138.774 32.2733 140.204 32.028 141.868 32.028C143.041 32.028 144.236 32.156 145.452 32.412C146.668 32.668 147.681 33.0413 148.492 33.532L146.828 37.084C145.996 36.5933 145.153 36.2627 144.3 36.092C143.468 35.9 142.657 35.804 141.868 35.804C140.758 35.804 139.948 35.9533 139.436 36.252C138.924 36.5507 138.668 36.9347 138.668 37.404C138.668 37.8307 138.849 38.1507 139.212 38.364C139.596 38.5773 140.097 38.748 140.716 38.876C141.334 39.004 142.006 39.1213 142.732 39.228C143.478 39.3133 144.225 39.452 144.972 39.644C145.718 39.836 146.39 40.1133 146.988 40.476C147.606 40.8173 148.108 41.2973 148.492 41.916C148.876 42.5133 149.068 43.3027 149.068 44.284C149.068 45.3507 148.748 46.3 148.108 47.132C147.468 47.9427 146.54 48.5827 145.324 49.052C144.129 49.5213 142.668 49.756 140.94 49.756Z" fill="#457B9D"/>
<path d="M176.859 27.7437C176.859 26.1688 175.575 24.875 173.991 24.875C172.406 24.875 171.113 26.1688 171.122 27.7437V35.1219H163.744C162.169 35.1219 160.875 36.4062 160.875 37.9906C160.875 39.5656 162.169 40.8594 163.744 40.8594H171.122V48.2281C171.122 49.8031 172.406 51.0969 173.991 51.0969C175.566 51.0969 176.859 49.8125 176.859 48.2281V40.8594H184.228C185.803 40.8594 187.097 39.575 187.097 37.9906C187.097 36.4156 185.812 35.1219 184.228 35.1219H176.859V27.7437Z" fill="#457B9D"/>
</g>
<path d="M628.024 29.7H629.776V46.5H628.024V29.7ZM617.512 46.5H615.736V29.7H617.512V46.5ZM628.192 38.748H617.32V37.188H628.192V38.748ZM640.035 46.62C638.819 46.62 637.723 46.348 636.747 45.804C635.787 45.244 635.027 44.484 634.467 43.524C633.907 42.548 633.627 41.436 633.627 40.188C633.627 38.924 633.907 37.812 634.467 36.852C635.027 35.892 635.787 35.14 636.747 34.596C637.707 34.052 638.803 33.78 640.035 33.78C641.283 33.78 642.387 34.052 643.347 34.596C644.323 35.14 645.083 35.892 645.627 36.852C646.187 37.812 646.467 38.924 646.467 40.188C646.467 41.436 646.187 42.548 645.627 43.524C645.083 44.484 644.323 45.244 643.347 45.804C642.371 46.348 641.267 46.62 640.035 46.62ZM640.035 45.108C640.947 45.108 641.755 44.908 642.459 44.508C643.163 44.092 643.715 43.516 644.115 42.78C644.531 42.028 644.739 41.164 644.739 40.188C644.739 39.196 644.531 38.332 644.115 37.596C643.715 36.86 643.163 36.292 642.459 35.892C641.755 35.476 640.955 35.268 640.059 35.268C639.163 35.268 638.363 35.476 637.659 35.892C636.955 36.292 636.395 36.86 635.979 37.596C635.563 38.332 635.355 39.196 635.355 40.188C635.355 41.164 635.563 42.028 635.979 42.78C636.395 43.516 636.955 44.092 637.659 44.508C638.363 44.908 639.155 45.108 640.035 45.108ZM665.69 33.78C666.714 33.78 667.602 33.98 668.354 34.38C669.122 34.764 669.714 35.356 670.13 36.156C670.562 36.956 670.778 37.964 670.778 39.18V46.5H669.074V39.348C669.074 38.02 668.754 37.02 668.114 36.348C667.49 35.66 666.602 35.316 665.45 35.316C664.586 35.316 663.834 35.5 663.194 35.868C662.57 36.22 662.082 36.74 661.73 37.428C661.394 38.1 661.226 38.916 661.226 39.876V46.5H659.522V39.348C659.522 38.02 659.202 37.02 658.562 36.348C657.922 35.66 657.026 35.316 655.874 35.316C655.026 35.316 654.282 35.5 653.642 35.868C653.002 36.22 652.506 36.74 652.154 37.428C651.818 38.1 651.65 38.916 651.65 39.876V46.5H649.946V33.9H651.578V37.308L651.314 36.708C651.698 35.796 652.314 35.084 653.162 34.572C654.026 34.044 655.042 33.78 656.21 33.78C657.442 33.78 658.49 34.092 659.354 34.716C660.218 35.324 660.778 36.244 661.034 37.476L660.362 37.212C660.73 36.188 661.378 35.364 662.306 34.74C663.25 34.1 664.378 33.78 665.69 33.78ZM680.751 46.62C679.439 46.62 678.287 46.348 677.295 45.804C676.303 45.244 675.527 44.484 674.967 43.524C674.407 42.548 674.127 41.436 674.127 40.188C674.127 38.94 674.391 37.836 674.919 36.876C675.463 35.916 676.199 35.164 677.127 34.62C678.071 34.06 679.127 33.78 680.295 33.78C681.479 33.78 682.527 34.052 683.439 34.596C684.367 35.124 685.095 35.876 685.623 36.852C686.151 37.812 686.415 38.924 686.415 40.188C686.415 40.268 686.407 40.356 686.391 40.452C686.391 40.532 686.391 40.62 686.391 40.716H675.423V39.444H685.479L684.807 39.948C684.807 39.036 684.607 38.228 684.207 37.524C683.823 36.804 683.295 36.244 682.623 35.844C681.951 35.444 681.175 35.244 680.295 35.244C679.431 35.244 678.655 35.444 677.967 35.844C677.279 36.244 676.743 36.804 676.359 37.524C675.975 38.244 675.783 39.068 675.783 39.996V40.26C675.783 41.22 675.991 42.068 676.407 42.804C676.839 43.524 677.431 44.092 678.183 44.508C678.951 44.908 679.823 45.108 680.799 45.108C681.567 45.108 682.279 44.972 682.935 44.7C683.607 44.428 684.183 44.012 684.663 43.452L685.623 44.556C685.063 45.228 684.359 45.74 683.511 46.092C682.679 46.444 681.759 46.62 680.751 46.62Z" fill="#457B9D"/>
<path d="M722.08 46.644C720.816 46.644 719.64 46.436 718.552 46.02C717.48 45.588 716.544 44.988 715.744 44.22C714.96 43.436 714.344 42.532 713.896 41.508C713.464 40.468 713.248 39.332 713.248 38.1C713.248 36.868 713.464 35.74 713.896 34.716C714.344 33.676 714.96 32.772 715.744 32.004C716.544 31.22 717.48 30.62 718.552 30.204C719.624 29.772 720.8 29.556 722.08 29.556C723.344 29.556 724.512 29.772 725.584 30.204C726.656 30.62 727.584 31.212 728.368 31.98C729.168 32.748 729.784 33.652 730.216 34.692C730.664 35.732 730.888 36.868 730.888 38.1C730.888 39.332 730.664 40.468 730.216 41.508C729.784 42.548 729.168 43.452 728.368 44.22C727.584 44.988 726.656 45.588 725.584 46.02C724.512 46.436 723.344 46.644 722.08 46.644ZM727.576 49.836C727.064 49.836 726.568 49.772 726.088 49.644C725.608 49.516 725.12 49.308 724.624 49.02C724.144 48.748 723.648 48.388 723.136 47.94C722.624 47.492 722.064 46.948 721.456 46.308L723.4 45.828C723.896 46.42 724.376 46.908 724.84 47.292C725.32 47.676 725.784 47.956 726.232 48.132C726.696 48.324 727.152 48.42 727.6 48.42C728.848 48.42 729.912 47.908 730.792 46.884L731.656 47.916C730.6 49.196 729.24 49.836 727.576 49.836ZM722.08 45.06C723.088 45.06 724.016 44.892 724.864 44.556C725.728 44.204 726.472 43.708 727.096 43.068C727.736 42.428 728.232 41.692 728.584 40.86C728.936 40.012 729.112 39.092 729.112 38.1C729.112 37.092 728.936 36.172 728.584 35.34C728.232 34.492 727.736 33.756 727.096 33.132C726.472 32.492 725.728 32.004 724.864 31.668C724.016 31.316 723.088 31.14 722.08 31.14C721.072 31.14 720.136 31.316 719.272 31.668C718.408 32.004 717.656 32.492 717.016 33.132C716.392 33.756 715.896 34.492 715.528 35.34C715.176 36.172 715 37.092 715 38.1C715 39.092 715.176 40.012 715.528 40.86C715.896 41.692 716.392 42.428 717.016 43.068C717.656 43.708 718.408 44.204 719.272 44.556C720.136 44.892 721.072 45.06 722.08 45.06ZM739.717 46.62C738.645 46.62 737.709 46.42 736.909 46.02C736.109 45.62 735.485 45.02 735.037 44.22C734.605 43.42 734.389 42.42 734.389 41.22V33.9H736.093V41.028C736.093 42.372 736.421 43.388 737.077 44.076C737.749 44.748 738.685 45.084 739.885 45.084C740.765 45.084 741.525 44.908 742.165 44.556C742.821 44.188 743.317 43.66 743.653 42.972C744.005 42.284 744.181 41.46 744.181 40.5V33.9H745.885V46.5H744.253V43.044L744.517 43.668C744.117 44.596 743.493 45.324 742.645 45.852C741.813 46.364 740.837 46.62 739.717 46.62ZM755.986 46.62C754.674 46.62 753.522 46.348 752.53 45.804C751.538 45.244 750.762 44.484 750.202 43.524C749.642 42.548 749.362 41.436 749.362 40.188C749.362 38.94 749.626 37.836 750.154 36.876C750.698 35.916 751.434 35.164 752.362 34.62C753.306 34.06 754.362 33.78 755.53 33.78C756.714 33.78 757.762 34.052 758.674 34.596C759.602 35.124 760.33 35.876 760.858 36.852C761.386 37.812 761.65 38.924 761.65 40.188C761.65 40.268 761.642 40.356 761.626 40.452C761.626 40.532 761.626 40.62 761.626 40.716H750.658V39.444H760.714L760.042 39.948C760.042 39.036 759.842 38.228 759.442 37.524C759.058 36.804 758.53 36.244 757.858 35.844C757.186 35.444 756.41 35.244 755.53 35.244C754.666 35.244 753.89 35.444 753.202 35.844C752.514 36.244 751.978 36.804 751.594 37.524C751.21 38.244 751.018 39.068 751.018 39.996V40.26C751.018 41.22 751.226 42.068 751.642 42.804C752.074 43.524 752.666 44.092 753.418 44.508C754.186 44.908 755.058 45.108 756.034 45.108C756.802 45.108 757.514 44.972 758.17 44.7C758.842 44.428 759.418 44.012 759.898 43.452L760.858 44.556C760.298 45.228 759.594 45.74 758.746 46.092C757.914 46.444 756.994 46.62 755.986 46.62ZM780.862 33.78C781.886 33.78 782.774 33.98 783.526 34.38C784.294 34.764 784.886 35.356 785.302 36.156C785.734 36.956 785.95 37.964 785.95 39.18V46.5H784.246V39.348C784.246 38.02 783.926 37.02 783.286 36.348C782.662 35.66 781.774 35.316 780.622 35.316C779.758 35.316 779.006 35.5 778.366 35.868C777.742 36.22 777.254 36.74 776.902 37.428C776.566 38.1 776.398 38.916 776.398 39.876V46.5H774.694V39.348C774.694 38.02 774.374 37.02 773.734 36.348C773.094 35.66 772.198 35.316 771.046 35.316C770.198 35.316 769.454 35.5 768.814 35.868C768.174 36.22 767.678 36.74 767.326 37.428C766.99 38.1 766.822 38.916 766.822 39.876V46.5H765.118V33.9H766.75V37.308L766.486 36.708C766.87 35.796 767.486 35.084 768.334 34.572C769.198 34.044 770.214 33.78 771.382 33.78C772.614 33.78 773.662 34.092 774.526 34.716C775.39 35.324 775.95 36.244 776.206 37.476L775.534 37.212C775.902 36.188 776.55 35.364 777.478 34.74C778.422 34.1 779.55 33.78 780.862 33.78ZM800.237 46.62C799.197 46.62 798.213 46.476 797.285 46.188C796.357 45.884 795.629 45.508 795.101 45.06L795.869 43.716C796.381 44.1 797.037 44.436 797.837 44.724C798.637 44.996 799.477 45.132 800.357 45.132C801.557 45.132 802.421 44.948 802.949 44.58C803.477 44.196 803.741 43.692 803.741 43.068C803.741 42.604 803.589 42.244 803.285 41.988C802.997 41.716 802.613 41.516 802.133 41.388C801.653 41.244 801.117 41.124 800.525 41.028C799.933 40.932 799.341 40.82 798.749 40.692C798.173 40.564 797.645 40.38 797.165 40.14C796.685 39.884 796.293 39.54 795.989 39.108C795.701 38.676 795.557 38.1 795.557 37.38C795.557 36.692 795.749 36.076 796.133 35.532C796.517 34.988 797.077 34.564 797.813 34.26C798.565 33.94 799.477 33.78 800.549 33.78C801.365 33.78 802.181 33.892 802.997 34.116C803.813 34.324 804.485 34.604 805.013 34.956L804.269 36.324C803.709 35.94 803.109 35.668 802.469 35.508C801.829 35.332 801.189 35.244 800.549 35.244C799.413 35.244 798.573 35.444 798.029 35.844C797.501 36.228 797.237 36.724 797.237 37.332C797.237 37.812 797.381 38.188 797.669 38.46C797.973 38.732 798.365 38.948 798.845 39.108C799.341 39.252 799.877 39.372 800.453 39.468C801.045 39.564 801.629 39.684 802.205 39.828C802.797 39.956 803.333 40.14 803.813 40.38C804.309 40.604 804.701 40.932 804.989 41.364C805.293 41.78 805.445 42.332 805.445 43.02C805.445 43.756 805.237 44.396 804.821 44.94C804.421 45.468 803.829 45.884 803.045 46.188C802.277 46.476 801.341 46.62 800.237 46.62ZM813.707 46.62C812.491 46.62 811.395 46.348 810.419 45.804C809.459 45.244 808.699 44.484 808.139 43.524C807.579 42.548 807.299 41.436 807.299 40.188C807.299 38.924 807.579 37.812 808.139 36.852C808.699 35.892 809.459 35.14 810.419 34.596C811.379 34.052 812.475 33.78 813.707 33.78C814.955 33.78 816.059 34.052 817.019 34.596C817.995 35.14 818.755 35.892 819.299 36.852C819.859 37.812 820.139 38.924 820.139 40.188C820.139 41.436 819.859 42.548 819.299 43.524C818.755 44.484 817.995 45.244 817.019 45.804C816.043 46.348 814.939 46.62 813.707 46.62ZM813.707 45.108C814.619 45.108 815.427 44.908 816.131 44.508C816.835 44.092 817.387 43.516 817.787 42.78C818.203 42.028 818.411 41.164 818.411 40.188C818.411 39.196 818.203 38.332 817.787 37.596C817.387 36.86 816.835 36.292 816.131 35.892C815.427 35.476 814.627 35.268 813.731 35.268C812.835 35.268 812.035 35.476 811.331 35.892C810.627 36.292 810.067 36.86 809.651 37.596C809.235 38.332 809.027 39.196 809.027 40.188C809.027 41.164 809.235 42.028 809.651 42.78C810.067 43.516 810.627 44.092 811.331 44.508C812.035 44.908 812.827 45.108 813.707 45.108ZM839.362 33.78C840.386 33.78 841.274 33.98 842.026 34.38C842.794 34.764 843.386 35.356 843.802 36.156C844.234 36.956 844.45 37.964 844.45 39.18V46.5H842.746V39.348C842.746 38.02 842.426 37.02 841.786 36.348C841.162 35.66 840.274 35.316 839.122 35.316C838.258 35.316 837.506 35.5 836.866 35.868C836.242 36.22 835.754 36.74 835.402 37.428C835.066 38.1 834.898 38.916 834.898 39.876V46.5H833.194V39.348C833.194 38.02 832.874 37.02 832.234 36.348C831.594 35.66 830.698 35.316 829.546 35.316C828.698 35.316 827.954 35.5 827.314 35.868C826.674 36.22 826.178 36.74 825.826 37.428C825.49 38.1 825.322 38.916 825.322 39.876V46.5H823.618V33.9H825.25V37.308L824.986 36.708C825.37 35.796 825.986 35.084 826.834 34.572C827.698 34.044 828.714 33.78 829.882 33.78C831.114 33.78 832.162 34.092 833.026 34.716C833.89 35.324 834.45 36.244 834.706 37.476L834.034 37.212C834.402 36.188 835.05 35.364 835.978 34.74C836.922 34.1 838.05 33.78 839.362 33.78ZM854.207 46.62C852.991 46.62 851.895 46.348 850.919 45.804C849.959 45.244 849.199 44.484 848.639 43.524C848.079 42.548 847.799 41.436 847.799 40.188C847.799 38.924 848.079 37.812 848.639 36.852C849.199 35.892 849.959 35.14 850.919 34.596C851.879 34.052 852.975 33.78 854.207 33.78C855.455 33.78 856.559 34.052 857.519 34.596C858.495 35.14 859.255 35.892 859.799 36.852C860.359 37.812 860.639 38.924 860.639 40.188C860.639 41.436 860.359 42.548 859.799 43.524C859.255 44.484 858.495 45.244 857.519 45.804C856.543 46.348 855.439 46.62 854.207 46.62ZM854.207 45.108C855.119 45.108 855.927 44.908 856.631 44.508C857.335 44.092 857.887 43.516 858.287 42.78C858.703 42.028 858.911 41.164 858.911 40.188C858.911 39.196 858.703 38.332 858.287 37.596C857.887 36.86 857.335 36.292 856.631 35.892C855.927 35.476 855.127 35.268 854.231 35.268C853.335 35.268 852.535 35.476 851.831 35.892C851.127 36.292 850.567 36.86 850.151 37.596C849.735 38.332 849.527 39.196 849.527 40.188C849.527 41.164 849.735 42.028 850.151 42.78C850.567 43.516 851.127 44.092 851.831 44.508C852.535 44.908 853.327 45.108 854.207 45.108ZM867.502 46.62C866.462 46.62 865.478 46.476 864.55 46.188C863.622 45.884 862.894 45.508 862.366 45.06L863.134 43.716C863.646 44.1 864.302 44.436 865.102 44.724C865.902 44.996 866.742 45.132 867.622 45.132C868.822 45.132 869.686 44.948 870.214 44.58C870.742 44.196 871.006 43.692 871.006 43.068C871.006 42.604 870.854 42.244 870.55 41.988C870.262 41.716 869.878 41.516 869.398 41.388C868.918 41.244 868.382 41.124 867.79 41.028C867.198 40.932 866.606 40.82 866.014 40.692C865.438 40.564 864.91 40.38 864.43 40.14C863.95 39.884 863.558 39.54 863.254 39.108C862.966 38.676 862.822 38.1 862.822 37.38C862.822 36.692 863.014 36.076 863.398 35.532C863.782 34.988 864.342 34.564 865.078 34.26C865.83 33.94 866.742 33.78 867.814 33.78C868.63 33.78 869.446 33.892 870.262 34.116C871.078 34.324 871.75 34.604 872.278 34.956L871.534 36.324C870.974 35.94 870.374 35.668 869.734 35.508C869.094 35.332 868.454 35.244 867.814 35.244C866.678 35.244 865.838 35.444 865.294 35.844C864.766 36.228 864.502 36.724 864.502 37.332C864.502 37.812 864.646 38.188 864.934 38.46C865.238 38.732 865.63 38.948 866.11 39.108C866.606 39.252 867.142 39.372 867.718 39.468C868.31 39.564 868.894 39.684 869.47 39.828C870.062 39.956 870.598 40.14 871.078 40.38C871.574 40.604 871.966 40.932 872.254 41.364C872.558 41.78 872.71 42.332 872.71 43.02C872.71 43.756 872.502 44.396 872.086 44.94C871.686 45.468 871.094 45.884 870.31 46.188C869.542 46.476 868.606 46.62 867.502 46.62Z" fill="#457B9D"/>
<path d="M902.32 37.212H911.2V38.724H902.32V37.212ZM902.512 44.964H912.616V46.5H900.736V29.7H912.256V31.236H902.512V44.964ZM922.863 33.78C923.887 33.78 924.783 33.98 925.551 34.38C926.335 34.764 926.943 35.356 927.375 36.156C927.823 36.956 928.047 37.964 928.047 39.18V46.5H926.343V39.348C926.343 38.02 926.007 37.02 925.335 36.348C924.679 35.66 923.751 35.316 922.551 35.316C921.655 35.316 920.871 35.5 920.199 35.868C919.543 36.22 919.031 36.74 918.663 37.428C918.311 38.1 918.135 38.916 918.135 39.876V46.5H916.431V33.9H918.063V37.356L917.799 36.708C918.199 35.796 918.839 35.084 919.719 34.572C920.599 34.044 921.647 33.78 922.863 33.78ZM936.633 46.62C935.449 46.62 934.537 46.3 933.897 45.66C933.257 45.02 932.937 44.116 932.937 42.948V31.116H934.641V42.852C934.641 43.588 934.825 44.156 935.193 44.556C935.577 44.956 936.121 45.156 936.825 45.156C937.577 45.156 938.201 44.94 938.697 44.508L939.297 45.732C938.961 46.036 938.553 46.26 938.073 46.404C937.609 46.548 937.129 46.62 936.633 46.62ZM930.681 35.316V33.9H938.481V35.316H930.681ZM942.399 46.5V33.9H944.031V37.332L943.863 36.732C944.215 35.772 944.807 35.044 945.639 34.548C946.471 34.036 947.503 33.78 948.735 33.78V35.436C948.671 35.436 948.607 35.436 948.543 35.436C948.479 35.42 948.415 35.412 948.351 35.412C947.023 35.412 945.983 35.82 945.231 36.636C944.479 37.436 944.103 38.58 944.103 40.068V46.5H942.399ZM958.803 46.5V43.716L958.731 43.26V38.604C958.731 37.532 958.427 36.708 957.819 36.132C957.227 35.556 956.339 35.268 955.155 35.268C954.339 35.268 953.563 35.404 952.827 35.676C952.091 35.948 951.467 36.308 950.955 36.756L950.187 35.484C950.827 34.94 951.595 34.524 952.491 34.236C953.387 33.932 954.331 33.78 955.323 33.78C956.955 33.78 958.211 34.188 959.091 35.004C959.987 35.804 960.435 37.028 960.435 38.676V46.5H958.803ZM954.459 46.62C953.515 46.62 952.691 46.468 951.987 46.164C951.299 45.844 950.771 45.412 950.403 44.868C950.035 44.308 949.851 43.668 949.851 42.948C949.851 42.292 950.003 41.7 950.307 41.172C950.627 40.628 951.139 40.196 951.843 39.876C952.563 39.54 953.523 39.372 954.723 39.372H959.067V40.644H954.771C953.555 40.644 952.707 40.86 952.227 41.292C951.763 41.724 951.531 42.26 951.531 42.9C951.531 43.62 951.811 44.196 952.371 44.628C952.931 45.06 953.715 45.276 954.723 45.276C955.683 45.276 956.507 45.06 957.195 44.628C957.899 44.18 958.411 43.54 958.731 42.708L959.115 43.884C958.795 44.716 958.235 45.38 957.435 45.876C956.651 46.372 955.659 46.62 954.459 46.62ZM965.064 46.5V33.9H966.696V37.332L966.528 36.732C966.88 35.772 967.472 35.044 968.304 34.548C969.136 34.036 970.168 33.78 971.4 33.78V35.436C971.336 35.436 971.272 35.436 971.208 35.436C971.144 35.42 971.08 35.412 971.016 35.412C969.688 35.412 968.648 35.82 967.896 36.636C967.144 37.436 966.768 38.58 966.768 40.068V46.5H965.064Z" fill="#457B9D"/>
<g filter="url(#filter0_d_1_3)">
<rect x="997" y="12" width="215" height="52" rx="8" fill="#1D3557"/>
<path d="M1056.41 40.3398H1059.92C1059.85 41.4883 1059.53 42.5078 1058.97 43.3984C1058.41 44.2891 1057.64 44.9844 1056.64 45.4844C1055.64 45.9844 1054.45 46.2344 1053.05 46.2344C1051.96 46.2344 1050.98 46.0469 1050.11 45.6719C1049.24 45.2891 1048.5 44.7422 1047.88 44.0312C1047.27 43.3203 1046.81 42.4609 1046.49 41.4531C1046.17 40.4453 1046.01 39.3164 1046.01 38.0664V36.8828C1046.01 35.6328 1046.17 34.5039 1046.5 33.4961C1046.84 32.4805 1047.31 31.6172 1047.93 30.9062C1048.55 30.1953 1049.3 29.6484 1050.17 29.2656C1051.04 28.8828 1052 28.6914 1053.07 28.6914C1054.5 28.6914 1055.7 28.9492 1056.67 29.4648C1057.66 29.9805 1058.42 30.6914 1058.96 31.5977C1059.5 32.5039 1059.83 33.5352 1059.94 34.6914H1056.43C1056.39 34.0039 1056.25 33.4219 1056.02 32.9453C1055.78 32.4609 1055.43 32.0977 1054.95 31.8555C1054.48 31.6055 1053.86 31.4805 1053.07 31.4805C1052.49 31.4805 1051.98 31.5898 1051.54 31.8086C1051.1 32.0273 1050.73 32.3594 1050.44 32.8047C1050.14 33.25 1049.92 33.8125 1049.77 34.4922C1049.63 35.1641 1049.56 35.9531 1049.56 36.8594V38.0664C1049.56 38.9492 1049.62 39.7266 1049.76 40.3984C1049.89 41.0625 1050.09 41.625 1050.37 42.0859C1050.65 42.5391 1051.01 42.8828 1051.45 43.1172C1051.89 43.3438 1052.43 43.457 1053.05 43.457C1053.79 43.457 1054.39 43.3398 1054.87 43.1055C1055.34 42.8711 1055.71 42.5234 1055.96 42.0625C1056.21 41.6016 1056.37 41.0273 1056.41 40.3398ZM1065.39 36.0859V46H1062.02V33.3203H1065.19L1065.39 36.0859ZM1069.21 33.2383L1069.15 36.3672C1068.99 36.3438 1068.79 36.3242 1068.55 36.3086C1068.33 36.2852 1068.12 36.2734 1067.93 36.2734C1067.46 36.2734 1067.04 36.3359 1066.69 36.4609C1066.35 36.5781 1066.06 36.7539 1065.82 36.9883C1065.6 37.2227 1065.43 37.5078 1065.31 37.8438C1065.2 38.1797 1065.14 38.5625 1065.12 38.9922L1064.44 38.7812C1064.44 37.9609 1064.52 37.207 1064.69 36.5195C1064.85 35.8242 1065.09 35.2188 1065.4 34.7031C1065.72 34.1875 1066.11 33.7891 1066.57 33.5078C1067.04 33.2266 1067.56 33.0859 1068.16 33.0859C1068.34 33.0859 1068.54 33.1016 1068.73 33.1328C1068.93 33.1562 1069.09 33.1914 1069.21 33.2383ZM1074.37 33.3203V46H1070.98V33.3203H1074.37ZM1070.77 30.0156C1070.77 29.5234 1070.94 29.1172 1071.29 28.7969C1071.63 28.4766 1072.09 28.3164 1072.67 28.3164C1073.24 28.3164 1073.7 28.4766 1074.04 28.7969C1074.39 29.1172 1074.57 29.5234 1074.57 30.0156C1074.57 30.5078 1074.39 30.9141 1074.04 31.2344C1073.7 31.5547 1073.24 31.7148 1072.67 31.7148C1072.09 31.7148 1071.63 31.5547 1071.29 31.2344C1070.94 30.9141 1070.77 30.5078 1070.77 30.0156ZM1084 43.1406V37.4922C1084 37.0859 1083.93 36.7383 1083.8 36.4492C1083.67 36.1523 1083.46 35.9219 1083.18 35.7578C1082.91 35.5938 1082.55 35.5117 1082.11 35.5117C1081.74 35.5117 1081.41 35.5781 1081.14 35.7109C1080.87 35.8359 1080.66 36.0195 1080.51 36.2617C1080.36 36.4961 1080.29 36.7734 1080.29 37.0938H1076.91C1076.91 36.5547 1077.04 36.043 1077.29 35.5586C1077.54 35.0742 1077.9 34.6484 1078.38 34.2812C1078.85 33.9062 1079.42 33.6133 1080.07 33.4023C1080.74 33.1914 1081.48 33.0859 1082.3 33.0859C1083.29 33.0859 1084.16 33.25 1084.93 33.5781C1085.69 33.9062 1086.29 34.3984 1086.73 35.0547C1087.18 35.7109 1087.4 36.5312 1087.4 37.5156V42.9414C1087.4 43.6367 1087.44 44.207 1087.53 44.6523C1087.61 45.0898 1087.74 45.4727 1087.9 45.8008V46H1084.49C1084.33 45.6562 1084.2 45.2266 1084.12 44.7109C1084.04 44.1875 1084 43.6641 1084 43.1406ZM1084.45 38.2773L1084.47 40.1875H1082.58C1082.14 40.1875 1081.75 40.2383 1081.42 40.3398C1081.09 40.4414 1080.82 40.5859 1080.61 40.7734C1080.4 40.9531 1080.25 41.1641 1080.14 41.4062C1080.05 41.6484 1080 41.9141 1080 42.2031C1080 42.4922 1080.07 42.7539 1080.2 42.9883C1080.34 43.2148 1080.53 43.3945 1080.78 43.5273C1081.03 43.6523 1081.32 43.7148 1081.66 43.7148C1082.16 43.7148 1082.61 43.6133 1082.98 43.4102C1083.36 43.207 1083.64 42.957 1083.85 42.6602C1084.06 42.3633 1084.17 42.082 1084.18 41.8164L1085.07 43.2461C1084.94 43.5664 1084.77 43.8984 1084.55 44.2422C1084.34 44.5859 1084.07 44.9102 1083.74 45.2148C1083.41 45.5117 1083.02 45.7578 1082.56 45.9531C1082.1 46.1406 1081.55 46.2344 1080.92 46.2344C1080.11 46.2344 1079.38 46.0742 1078.73 45.7539C1078.08 45.4258 1077.56 44.9766 1077.18 44.4062C1076.8 43.8281 1076.62 43.1719 1076.62 42.4375C1076.62 41.7734 1076.74 41.1836 1076.99 40.668C1077.24 40.1523 1077.61 39.7188 1078.09 39.3672C1078.59 39.0078 1079.2 38.7383 1079.93 38.5586C1080.67 38.3711 1081.52 38.2773 1082.49 38.2773H1084.45ZM1093.38 36.0859V46H1090V33.3203H1093.18L1093.38 36.0859ZM1097.2 33.2383L1097.14 36.3672C1096.97 36.3438 1096.77 36.3242 1096.54 36.3086C1096.31 36.2852 1096.11 36.2734 1095.92 36.2734C1095.44 36.2734 1095.03 36.3359 1094.68 36.4609C1094.33 36.5781 1094.04 36.7539 1093.81 36.9883C1093.58 37.2227 1093.41 37.5078 1093.29 37.8438C1093.18 38.1797 1093.12 38.5625 1093.11 38.9922L1092.43 38.7812C1092.43 37.9609 1092.51 37.207 1092.67 36.5195C1092.84 35.8242 1093.07 35.2188 1093.39 34.7031C1093.71 34.1875 1094.1 33.7891 1094.56 33.5078C1095.02 33.2266 1095.55 33.0859 1096.14 33.0859C1096.33 33.0859 1096.52 33.1016 1096.71 33.1328C1096.91 33.1562 1097.07 33.1914 1097.2 33.2383ZM1110 43.5977C1110.42 43.5977 1110.79 43.5195 1111.11 43.3633C1111.43 43.1992 1111.68 42.9727 1111.86 42.6836C1112.04 42.3867 1112.14 42.0391 1112.15 41.6406H1115.32C1115.32 42.5312 1115.08 43.3242 1114.61 44.0195C1114.14 44.707 1113.51 45.25 1112.72 45.6484C1111.93 46.0391 1111.05 46.2344 1110.07 46.2344C1109.09 46.2344 1108.23 46.0703 1107.5 45.7422C1106.77 45.4141 1106.16 44.9609 1105.68 44.3828C1105.2 43.7969 1104.83 43.1172 1104.59 42.3438C1104.35 41.5625 1104.23 40.7266 1104.23 39.8359V39.4961C1104.23 38.5977 1104.35 37.7617 1104.59 36.9883C1104.83 36.207 1105.2 35.5273 1105.68 34.9492C1106.16 34.3633 1106.77 33.9062 1107.5 33.5781C1108.22 33.25 1109.07 33.0859 1110.05 33.0859C1111.09 33.0859 1112 33.2852 1112.78 33.6836C1113.57 34.082 1114.19 34.6523 1114.63 35.3945C1115.09 36.1289 1115.32 37 1115.32 38.0078H1112.15C1112.14 37.5859 1112.05 37.2031 1111.88 36.8594C1111.71 36.5156 1111.47 36.2422 1111.15 36.0391C1110.84 35.8281 1110.45 35.7227 1109.99 35.7227C1109.5 35.7227 1109.1 35.8281 1108.79 36.0391C1108.47 36.2422 1108.23 36.5234 1108.06 36.8828C1107.89 37.2344 1107.77 37.6367 1107.7 38.0898C1107.63 38.5352 1107.6 39.0039 1107.6 39.4961V39.8359C1107.6 40.3281 1107.63 40.8008 1107.7 41.2539C1107.76 41.707 1107.88 42.1094 1108.05 42.4609C1108.23 42.8125 1108.47 43.0898 1108.79 43.293C1109.1 43.4961 1109.5 43.5977 1110 43.5977ZM1116.74 39.7891V39.543C1116.74 38.6133 1116.88 37.7578 1117.14 36.9766C1117.41 36.1875 1117.79 35.5039 1118.3 34.9258C1118.81 34.3477 1119.43 33.8984 1120.18 33.5781C1120.92 33.25 1121.77 33.0859 1122.73 33.0859C1123.69 33.0859 1124.55 33.25 1125.3 33.5781C1126.05 33.8984 1126.68 34.3477 1127.18 34.9258C1127.7 35.5039 1128.09 36.1875 1128.36 36.9766C1128.62 37.7578 1128.75 38.6133 1128.75 39.543V39.7891C1128.75 40.7109 1128.62 41.5664 1128.36 42.3555C1128.09 43.1367 1127.7 43.8203 1127.18 44.4062C1126.68 44.9844 1126.05 45.4336 1125.31 45.7539C1124.57 46.0742 1123.71 46.2344 1122.75 46.2344C1121.79 46.2344 1120.94 46.0742 1120.19 45.7539C1119.45 45.4336 1118.82 44.9844 1118.3 44.4062C1117.79 43.8203 1117.41 43.1367 1117.14 42.3555C1116.88 41.5664 1116.74 40.7109 1116.74 39.7891ZM1120.12 39.543V39.7891C1120.12 40.3203 1120.16 40.8164 1120.26 41.2773C1120.35 41.7383 1120.5 42.1445 1120.7 42.4961C1120.91 42.8398 1121.19 43.1094 1121.52 43.3047C1121.86 43.5 1122.27 43.5977 1122.75 43.5977C1123.22 43.5977 1123.62 43.5 1123.96 43.3047C1124.3 43.1094 1124.57 42.8398 1124.77 42.4961C1124.97 42.1445 1125.12 41.7383 1125.21 41.2773C1125.32 40.8164 1125.37 40.3203 1125.37 39.7891V39.543C1125.37 39.0273 1125.32 38.543 1125.21 38.0898C1125.12 37.6289 1124.97 37.2227 1124.76 36.8711C1124.55 36.5117 1124.29 36.2305 1123.95 36.0273C1123.61 35.8242 1123.21 35.7227 1122.73 35.7227C1122.25 35.7227 1121.85 35.8242 1121.51 36.0273C1121.18 36.2305 1120.91 36.5117 1120.7 36.8711C1120.5 37.2227 1120.35 37.6289 1120.26 38.0898C1120.16 38.543 1120.12 39.0273 1120.12 39.543ZM1134.13 36.0273V46H1130.76V33.3203H1133.92L1134.13 36.0273ZM1133.64 39.2148H1132.73C1132.73 38.2773 1132.85 37.4336 1133.09 36.6836C1133.33 35.9258 1133.67 35.2812 1134.11 34.75C1134.55 34.2109 1135.07 33.8008 1135.67 33.5195C1136.28 33.2305 1136.96 33.0859 1137.71 33.0859C1138.3 33.0859 1138.84 33.1719 1139.34 33.3438C1139.83 33.5156 1140.25 33.7891 1140.6 34.1641C1140.96 34.5391 1141.23 35.0352 1141.42 35.6523C1141.62 36.2695 1141.71 37.0234 1141.71 37.9141V46H1138.32V37.9023C1138.32 37.3398 1138.24 36.9023 1138.08 36.5898C1137.93 36.2773 1137.7 36.0586 1137.39 35.9336C1137.09 35.8008 1136.73 35.7344 1136.29 35.7344C1135.84 35.7344 1135.44 35.8242 1135.11 36.0039C1134.78 36.1836 1134.5 36.4336 1134.29 36.7539C1134.07 37.0664 1133.91 37.4336 1133.8 37.8555C1133.7 38.2773 1133.64 38.7305 1133.64 39.2148ZM1150.49 33.3203V35.7109H1143.11V33.3203H1150.49ZM1144.94 30.1914H1148.31V42.1797C1148.31 42.5469 1148.36 42.8281 1148.45 43.0234C1148.55 43.2188 1148.7 43.3555 1148.9 43.4336C1149.09 43.5039 1149.34 43.5391 1149.64 43.5391C1149.85 43.5391 1150.04 43.5312 1150.2 43.5156C1150.37 43.4922 1150.52 43.4688 1150.63 43.4453L1150.64 45.9297C1150.36 46.0234 1150.04 46.0977 1149.71 46.1523C1149.37 46.207 1149 46.2344 1148.59 46.2344C1147.85 46.2344 1147.2 46.1133 1146.65 45.8711C1146.1 45.6211 1145.68 45.2227 1145.38 44.6758C1145.09 44.1289 1144.94 43.4102 1144.94 42.5195V30.1914ZM1159.26 43.1406V37.4922C1159.26 37.0859 1159.19 36.7383 1159.06 36.4492C1158.93 36.1523 1158.72 35.9219 1158.44 35.7578C1158.16 35.5938 1157.81 35.5117 1157.37 35.5117C1157 35.5117 1156.67 35.5781 1156.4 35.7109C1156.12 35.8359 1155.91 36.0195 1155.77 36.2617C1155.62 36.4961 1155.54 36.7734 1155.54 37.0938H1152.17C1152.17 36.5547 1152.29 36.043 1152.54 35.5586C1152.79 35.0742 1153.16 34.6484 1153.63 34.2812C1154.11 33.9062 1154.68 33.6133 1155.33 33.4023C1156 33.1914 1156.74 33.0859 1157.56 33.0859C1158.54 33.0859 1159.42 33.25 1160.18 33.5781C1160.95 33.9062 1161.55 34.3984 1161.99 35.0547C1162.43 35.7109 1162.66 36.5312 1162.66 37.5156V42.9414C1162.66 43.6367 1162.7 44.207 1162.79 44.6523C1162.87 45.0898 1163 45.4727 1163.16 45.8008V46H1159.75C1159.59 45.6562 1159.46 45.2266 1159.38 44.7109C1159.3 44.1875 1159.26 43.6641 1159.26 43.1406ZM1159.7 38.2773L1159.73 40.1875H1157.84C1157.39 40.1875 1157.01 40.2383 1156.68 40.3398C1156.35 40.4414 1156.08 40.5859 1155.87 40.7734C1155.66 40.9531 1155.5 41.1641 1155.4 41.4062C1155.31 41.6484 1155.26 41.9141 1155.26 42.2031C1155.26 42.4922 1155.33 42.7539 1155.46 42.9883C1155.59 43.2148 1155.79 43.3945 1156.04 43.5273C1156.29 43.6523 1156.58 43.7148 1156.91 43.7148C1157.42 43.7148 1157.86 43.6133 1158.24 43.4102C1158.61 43.207 1158.9 42.957 1159.11 42.6602C1159.32 42.3633 1159.43 42.082 1159.43 41.8164L1160.32 43.2461C1160.2 43.5664 1160.03 43.8984 1159.81 44.2422C1159.6 44.5859 1159.33 44.9102 1159 45.2148C1158.67 45.5117 1158.28 45.7578 1157.82 45.9531C1157.36 46.1406 1156.81 46.2344 1156.18 46.2344C1155.37 46.2344 1154.64 46.0742 1153.98 45.7539C1153.34 45.4258 1152.82 44.9766 1152.44 44.4062C1152.06 43.8281 1151.88 43.1719 1151.88 42.4375C1151.88 41.7734 1152 41.1836 1152.25 40.668C1152.5 40.1523 1152.87 39.7188 1153.35 39.3672C1153.84 39.0078 1154.46 38.7383 1155.19 38.5586C1155.93 38.3711 1156.78 38.2773 1157.75 38.2773H1159.7Z" fill="white"/>
</g>
</g>
<defs>
<filter id="filter0_d_1_3" x="997" y="12" width="224" height="62" filterUnits="userSpaceOnUse" color-interpolation-filters="sRGB">
<feFlood flood-opacity="0" result="BackgroundImageFix"/>
<feColorMatrix in="SourceAlpha" type="matrix" values="0 0 0 0 0 0 0 0 0 0 0 0 0 0 0 0 0 0 127 0" result="hardAlpha"/>
<feOffset dx="5" dy="6"/>
<feGaussianBlur stdDeviation="2"/>
<feComposite in2="hardAlpha" operator="out"/>
<feColorMatrix type="matrix" values="0 0 0 0 0 0 0 0 0 0 0 0 0 0 0 0 0 0 0.25 0"/>
<feBlend mode="normal" in2="BackgroundImageFix" result="effect1_dropShadow_1_3"/>
<feBlend mode="normal" in="SourceGraphic" in2="effect1_dropShadow_1_3" result="shape"/>
</filter>
<clipPath id="clip0_1_3">
<rect width="1212" height="76" fill="white"/>
</clipPath>
<clipPath id="clip1_1_3">
<rect width="189" height="39" fill="white" transform="translate(0 18.5)"/>
</clipPath>
</defs>
</svg>
