<svg width="229" height="240" viewBox="0 0 229 240" fill="none" xmlns="http://www.w3.org/2000/svg">
<path d="M143.82 219.852C195.418 219.852 237.246 217.141 237.246 213.796C237.246 210.452 195.418 207.741 143.82 207.741C92.2223 207.741 50.394 210.452 50.394 213.796C50.394 217.141 92.2223 219.852 143.82 219.852Z" fill="#F5F5F5"/>
<path d="M232.634 78.5328L220.146 110.842C220.004 111.213 219.748 111.546 219.403 111.81C219.059 112.073 218.638 112.258 218.181 112.347C217.725 112.435 217.248 112.423 216.799 112.313C216.349 112.202 215.942 111.997 215.617 111.717L209.124 106.142C208.633 105.723 207.966 105.479 207.262 105.46C206.558 105.441 205.872 105.649 205.35 106.04L151.127 146.864C150.643 147.229 150.017 147.435 149.363 147.447C148.71 147.459 148.073 147.274 147.57 146.928L113.143 123.186C112.645 122.847 112.018 122.666 111.374 122.674C110.73 122.683 110.111 122.882 109.627 123.235L41.9966 172.943L44.5633 153.017C44.6292 152.455 44.9495 151.934 45.4598 151.559L109.281 104.65C109.766 104.299 110.386 104.102 111.029 104.094C111.673 104.086 112.3 104.268 112.797 104.607L147.084 128.304C147.587 128.651 148.223 128.835 148.877 128.823C149.53 128.812 150.157 128.605 150.641 128.241L193.419 96.0142C193.688 95.8118 193.905 95.5665 194.057 95.293C194.21 95.0196 194.294 94.7234 194.306 94.4223C194.317 94.1212 194.256 93.8213 194.124 93.5404C193.993 93.2595 193.795 93.0033 193.542 92.7872L187.155 87.2759C186.821 86.9897 186.584 86.6351 186.47 86.2484C186.355 85.8616 186.366 85.4565 186.502 85.0745C186.638 84.6924 186.893 84.3472 187.243 84.0739C187.592 83.8007 188.023 83.6092 188.491 83.5192L229.44 75.6557C229.907 75.5649 230.395 75.5787 230.854 75.6956C231.312 75.8125 231.725 76.0283 232.05 76.321C232.375 76.6137 232.6 76.9727 232.703 77.3614C232.805 77.75 232.782 78.1543 232.634 78.5328Z" fill="#A8DADC"/>
<path opacity="0.1" d="M232.617 78.5861L220.17 110.808C220.023 111.183 219.762 111.52 219.412 111.787C219.062 112.054 218.635 112.241 218.172 112.33C217.708 112.419 217.225 112.407 216.77 112.295C216.314 112.183 215.9 111.976 215.57 111.692L209.124 106.181C208.626 105.755 207.949 105.506 207.234 105.486C206.519 105.466 205.822 105.677 205.291 106.074L151.127 146.864C150.593 147.269 149.887 147.482 149.164 147.457C148.558 147.441 147.976 147.256 147.512 146.932L113.16 123.22C112.653 122.875 112.014 122.69 111.358 122.698C110.701 122.706 110.069 122.906 109.574 123.264L41.9966 172.943L44.6746 152.176L109.258 104.709C109.752 104.349 110.384 104.147 111.041 104.139C111.698 104.131 112.337 104.318 112.844 104.665L127.441 114.74L147.055 128.304C147.566 128.654 148.211 128.84 148.874 128.828C149.536 128.817 150.172 128.608 150.664 128.241L193.425 96.0335C193.699 95.8286 193.92 95.58 194.076 95.3025C194.231 95.0249 194.317 94.7243 194.329 94.4184C194.342 94.1126 194.279 93.8079 194.146 93.5226C194.012 93.2373 193.811 92.9772 193.554 92.7579L187.219 87.3195C186.881 87.0288 186.642 86.6688 186.527 86.2765C186.411 85.8841 186.423 85.4734 186.561 85.0861C186.699 84.6988 186.959 84.3488 187.313 84.0718C187.668 83.7948 188.104 83.6007 188.579 83.5093L229.388 75.6653C229.861 75.5771 230.353 75.594 230.816 75.7142C231.278 75.8345 231.694 76.0539 232.022 76.3502C232.35 76.6465 232.577 77.0093 232.681 77.4019C232.786 77.7945 232.763 78.203 232.617 78.5861Z" fill="black"/>
<path d="M161.963 199.766H111.971V209.174H161.963V199.766Z" fill="#A8DADC"/>
<path opacity="0.2" d="M118.3 199.766H116.946V209.174H118.3V199.766Z" fill="black"/>
<path opacity="0.2" d="M125.256 199.766H123.902V209.174H125.256V199.766Z" fill="black"/>
<path opacity="0.2" d="M132.205 209.174H130.852V199.766L132.205 199.931V209.174Z" fill="black"/>
<path opacity="0.2" d="M139.161 199.766H137.808V209.174H139.161V199.766Z" fill="black"/>
<path opacity="0.2" d="M146.117 199.766H144.763V209.174H146.117V199.766Z" fill="black"/>
<path opacity="0.2" d="M153.067 199.766H151.713V209.174H153.067V199.766Z" fill="black"/>
<path opacity="0.2" d="M160.023 199.766H158.669V209.174H160.023V199.766Z" fill="black"/>
<path opacity="0.09" d="M161.963 199.766H111.971V201.705H161.963V199.766Z" fill="black"/>
<path d="M169.756 190.352H119.765V199.761H169.756V190.352Z" fill="#A8DADC"/>
<path opacity="0.2" d="M126.093 190.352H124.74V199.761H126.093V190.352Z" fill="black"/>
<path opacity="0.2" d="M133.049 190.352H131.696V199.761H133.049V190.352Z" fill="black"/>
<path opacity="0.2" d="M140.005 190.352H138.651V199.761H140.005V190.352Z" fill="black"/>
<path opacity="0.2" d="M146.955 190.352H145.601V199.761H146.955V190.352Z" fill="black"/>
<path opacity="0.2" d="M153.911 190.352H152.557V199.761H153.911V190.352Z" fill="black"/>
<path opacity="0.2" d="M160.861 190.352H159.507V199.761H160.861V190.352Z" fill="black"/>
<path opacity="0.2" d="M167.817 190.352H166.463V199.761H167.817V190.352Z" fill="black"/>
<path opacity="0.09" d="M169.756 190.352H119.765V192.291H169.756V190.352Z" fill="black"/>
<path d="M162.806 180.943H112.815V190.352H162.806V180.943Z" fill="#A8DADC"/>
<path opacity="0.2" d="M119.143 180.943H117.79V190.352H119.143V180.943Z" fill="black"/>
<path opacity="0.2" d="M126.093 190.357H124.74V180.952L126.093 180.943V190.357Z" fill="black"/>
<path opacity="0.2" d="M133.049 180.943H131.696V190.352H133.049V180.943Z" fill="black"/>
<path opacity="0.2" d="M140.005 180.943H138.651V190.352H140.005V180.943Z" fill="black"/>
<path opacity="0.2" d="M146.955 190.357H145.601V180.943L146.955 180.952V190.357Z" fill="black"/>
<path opacity="0.2" d="M153.911 180.943H152.557V190.352H153.911V180.943Z" fill="black"/>
<path opacity="0.2" d="M160.861 180.943H159.507V190.352H160.861V180.943Z" fill="black"/>
<path opacity="0.09" d="M162.806 180.943H112.815V183.261H162.806V180.943Z" fill="black"/>
<path d="M169.756 171.539H119.765V180.948H169.756V171.539Z" fill="#A8DADC"/>
<path opacity="0.2" d="M126.093 171.539H124.74V180.948H126.093V171.539Z" fill="black"/>
<path opacity="0.2" d="M133.049 171.539H131.696V180.948H133.049V171.539Z" fill="black"/>
<path opacity="0.2" d="M140.005 171.539H138.651V180.948H140.005V171.539Z" fill="black"/>
<path opacity="0.2" d="M146.955 171.539H145.601V180.948H146.955V171.539Z" fill="black"/>
<path opacity="0.2" d="M153.911 171.539H152.557V180.948H153.911V171.539Z" fill="black"/>
<path opacity="0.2" d="M160.861 180.943L159.507 180.952V171.539L160.861 171.709V180.943Z" fill="black"/>
<path opacity="0.2" d="M167.817 171.539H166.463V180.948H167.817V171.539Z" fill="black"/>
<path opacity="0.09" d="M169.756 171.539H119.765V173.478H169.756V171.539Z" fill="black"/>
<path d="M171.954 162.13H121.962V171.539H171.954V162.13Z" fill="#A8DADC"/>
<path opacity="0.2" d="M128.291 162.13H126.937V171.539H128.291V162.13Z" fill="black"/>
<path opacity="0.2" d="M135.241 162.13H133.887V171.539H135.241V162.13Z" fill="black"/>
<path opacity="0.2" d="M142.197 162.13H140.843V171.539H142.197V162.13Z" fill="black"/>
<path opacity="0.2" d="M149.152 162.13H147.799V171.539H149.152V162.13Z" fill="black"/>
<path opacity="0.2" d="M156.102 162.13H154.749V171.539H156.102V162.13Z" fill="black"/>
<path opacity="0.2" d="M163.058 162.13H161.705V171.539H163.058V162.13Z" fill="black"/>
<path opacity="0.2" d="M170.008 162.13H168.655V171.539H170.008V162.13Z" fill="black"/>
<path opacity="0.09" d="M171.954 162.13H121.962V164.069H171.954V162.13Z" fill="black"/>
<path d="M166.006 152.721H116.014V162.13H166.006V152.721Z" fill="#A8DADC"/>
<path opacity="0.2" d="M122.343 152.721H120.99V162.13H122.343V152.721Z" fill="black"/>
<path opacity="0.2" d="M129.299 152.721H127.945V162.13H129.299V152.721Z" fill="black"/>
<path opacity="0.2" d="M136.249 152.721H134.895V162.13H136.249V152.721Z" fill="black"/>
<path opacity="0.2" d="M143.205 152.721H141.851V162.13H143.205V152.721Z" fill="black"/>
<path opacity="0.2" d="M150.155 152.721H148.801V162.13H150.155V152.721Z" fill="black"/>
<path opacity="0.2" d="M157.11 152.721H155.757V162.13H157.11V152.721Z" fill="black"/>
<path opacity="0.2" d="M164.066 152.721H162.713V162.13H164.066V152.721Z" fill="black"/>
<path opacity="0.09" d="M166.006 152.721H116.014V154.66H166.006V152.721Z" fill="black"/>
<path d="M99.4538 199.906H49.4622V209.315H99.4538V199.906Z" fill="#A8DADC"/>
<path opacity="0.2" d="M55.7909 199.906H54.4373V209.315H55.7909V199.906Z" fill="black"/>
<path opacity="0.2" d="M62.7467 199.906H61.3931V209.315H62.7467V199.906Z" fill="black"/>
<path opacity="0.2" d="M69.7028 199.906H68.3491V209.315H69.7028V199.906Z" fill="black"/>
<path opacity="0.2" d="M76.6527 199.906H75.2991V209.315H76.6527V199.906Z" fill="black"/>
<path opacity="0.2" d="M83.6086 199.906H82.2549V209.315H83.6086V199.906Z" fill="black"/>
<path opacity="0.2" d="M90.5585 199.906H89.2048V209.315H90.5585V199.906Z" fill="black"/>
<path opacity="0.2" d="M97.5143 199.906H96.1606V209.315H97.5143V199.906Z" fill="black"/>
<path opacity="0.09" d="M99.4538 199.906H49.4622V201.846H99.4538V199.906Z" fill="black"/>
<path d="M101.815 190.497H51.8237V199.906H101.815V190.497Z" fill="#A8DADC"/>
<path opacity="0.2" d="M58.1525 190.497H56.7988V199.906H58.1525V190.497Z" fill="black"/>
<path opacity="0.2" d="M65.1085 190.497H63.7549V199.906H65.1085V190.497Z" fill="black"/>
<path opacity="0.2" d="M72.0585 190.497H70.7048V199.906H72.0585V190.497Z" fill="black"/>
<path opacity="0.2" d="M79.0143 190.497H77.6606V199.906H79.0143V190.497Z" fill="black"/>
<path opacity="0.2" d="M85.9643 190.497H84.6106V199.906H85.9643V190.497Z" fill="black"/>
<path opacity="0.2" d="M92.9201 190.497H91.5664V199.906H92.9201V190.497Z" fill="black"/>
<path opacity="0.2" d="M99.8759 190.497H98.5222V199.906H99.8759V190.497Z" fill="black"/>
<path opacity="0.09" d="M101.815 190.497H51.8237V192.271H101.815V190.497Z" fill="black"/>
<path d="M98.7507 181.084H48.759V190.493H98.7507V181.084Z" fill="#A8DADC"/>
<path opacity="0.2" d="M55.0878 181.084H53.7341V190.493H55.0878V181.084Z" fill="black"/>
<path opacity="0.2" d="M62.0436 181.084H60.6899V190.493H62.0436V181.084Z" fill="black"/>
<path opacity="0.2" d="M68.9936 181.084H67.6399V190.493H68.9936V181.084Z" fill="black"/>
<path opacity="0.2" d="M75.9494 181.084H74.5957V190.493H75.9494V181.084Z" fill="black"/>
<path opacity="0.2" d="M82.9052 181.084H81.5515V190.493H82.9052V181.084Z" fill="black"/>
<path opacity="0.2" d="M89.8551 181.084H88.5015V190.493H89.8551V181.084Z" fill="black"/>
<path opacity="0.2" d="M96.8109 181.084H95.4573V190.493H96.8109V181.084Z" fill="black"/>
<path opacity="0.09" d="M98.7507 181.084H48.759V182.858H98.7507V181.084Z" fill="black"/>
<path d="M208.567 176.365H197.615V209.568H208.567V176.365Z" fill="#A8DADC"/>
<g opacity="0.4">
<path d="M208.567 185.2V191.951L197.615 201.034V193.773L208.567 185.2Z" fill="white"/>
<path d="M208.567 180.262V181.409L197.615 190.497V189.351L208.567 180.262Z" fill="white"/>
</g>
<path d="M222.051 187.061H211.099V209.568H222.051V187.061Z" fill="#A8DADC"/>
<g opacity="0.4">
<path d="M222.051 193.695V200.378L211.099 209.456V202.273L222.051 193.695Z" fill="white"/>
<path d="M222.051 190.546V191.829L211.099 200.917V199.624L222.051 190.546Z" fill="white"/>
</g>
<path d="M195.077 160.409H184.125V209.568H195.077V160.409Z" fill="#A8DADC"/>
<g opacity="0.4">
<path d="M195.083 169.638V176.355L184.125 185.438V178.216L195.083 169.638Z" fill="white"/>
<path d="M195.083 165.945V167.199L184.125 176.292V175.028L195.083 165.945Z" fill="white"/>
</g>
<path d="M190.934 164.521C190.77 164.739 190.531 164.913 190.248 165.018C189.964 165.124 189.649 165.158 189.343 165.116C189.036 165.073 188.752 164.956 188.526 164.78C188.3 164.603 188.142 164.375 188.072 164.123C188.002 163.872 188.024 163.61 188.134 163.369C188.244 163.128 188.438 162.919 188.691 162.77C188.945 162.621 189.245 162.537 189.556 162.529C189.867 162.522 190.173 162.591 190.436 162.727C190.788 162.912 191.037 163.203 191.13 163.539C191.224 163.875 191.153 164.228 190.934 164.521Z" fill="#263238"/>
<path d="M204.418 180.306C204.254 180.523 204.015 180.695 203.733 180.799C203.451 180.904 203.138 180.937 202.833 180.894C202.528 180.851 202.246 180.735 202.021 180.559C201.796 180.383 201.639 180.156 201.569 179.906C201.5 179.656 201.521 179.395 201.631 179.155C201.74 178.916 201.933 178.708 202.184 178.559C202.436 178.41 202.735 178.326 203.044 178.318C203.353 178.31 203.658 178.377 203.92 178.513C204.095 178.603 204.247 178.721 204.367 178.86C204.487 178.999 204.573 179.157 204.619 179.323C204.665 179.49 204.671 179.663 204.637 179.831C204.602 180 204.528 180.161 204.418 180.306Z" fill="#263238"/>
<path d="M217.902 190.998C217.738 191.216 217.5 191.388 217.218 191.493C216.936 191.599 216.622 191.632 216.317 191.59C216.012 191.548 215.729 191.431 215.503 191.255C215.278 191.08 215.121 190.852 215.051 190.602C214.981 190.352 215.003 190.091 215.112 189.851C215.222 189.611 215.415 189.403 215.666 189.254C215.918 189.105 216.218 189.021 216.527 189.013C216.836 189.005 217.142 189.074 217.404 189.21C217.579 189.299 217.731 189.417 217.851 189.556C217.97 189.694 218.056 189.851 218.102 190.018C218.149 190.184 218.155 190.356 218.12 190.524C218.086 190.693 218.012 190.854 217.902 190.998Z" fill="#263238"/>
<path d="M216.578 190.298L202.678 201.034L203.088 179.616L189.604 186.532V163.831" stroke="#263238" stroke-miterlimit="10"/>
</svg>
